<svg width="69" height="25" viewBox="0 0 69 25" fill="none" xmlns="http://www.w3.org/2000/svg">
<path d="M63.9678 19.8278L68.795 19.8278L68.795 15.2955L63.9678 15.2955L63.9678 19.8278ZM51.1346 19.8278L47.5342 6.12555L52.2014 6.12555L54.6016 16.007L55.4017 16.007L58.0686 6.12555L62.7358 6.12555L57.4019 24.8343L52.7348 24.8343L54.2016 19.8278L51.1346 19.8278ZM39.9282 19.8278L47.529 19.8278L47.529 16.2705L44.462 16.2705L44.462 1.38247L39.9282 1.38247L39.9282 19.8278ZM27.7936 19.8278L23.2598 19.8278L23.2598 6.12555L27.7936 6.12555L27.7936 7.97008L28.0603 7.97008C28.0603 7.97008 29.2604 5.73029 32.1941 5.73029C35.3944 5.73029 37.3946 7.70657 37.3946 11.3956L37.3946 19.8278L32.8608 19.8278L32.8608 12.0544C32.8608 10.4734 31.9274 9.5511 30.4605 9.5511C28.9937 9.5511 27.7936 10.7369 27.7936 12.5814L27.7936 19.8278ZM10.6022 20.3548C4.46823 20.3548 0.201118 15.8752 0.201118 10.6051C0.201118 5.33504 4.46823 0.855465 10.6022 0.855465C16.7362 0.855466 21.0033 5.33504 21.0033 10.6051C21.0033 15.8752 16.7362 20.3548 10.6022 20.3548ZM10.6022 5.33504C7.53522 5.33504 5.40166 7.44307 5.40166 10.6051C5.40166 13.7672 7.53522 15.8752 10.6022 15.8752C13.6692 15.8752 15.8028 13.7672 15.8028 10.6051C15.8028 7.44307 13.6692 5.33504 10.6022 5.33504Z" fill="#232323"/>
<path d="M63.9678 19.8278L68.795 19.8278L68.795 15.2955L63.9678 15.2955L63.9678 19.8278ZM51.1346 19.8278L47.5342 6.12555L52.2014 6.12555L54.6016 16.007L55.4017 16.007L58.0686 6.12555L62.7358 6.12555L57.4019 24.8343L52.7348 24.8343L54.2016 19.8278L51.1346 19.8278ZM39.9282 19.8278L47.529 19.8278L47.529 16.2705L44.462 16.2705L44.462 1.38247L39.9282 1.38247L39.9282 19.8278ZM27.7936 19.8278L23.2598 19.8278L23.2598 6.12555L27.7936 6.12555L27.7936 7.97008L28.0603 7.97008C28.0603 7.97008 29.2604 5.73029 32.1941 5.73029C35.3944 5.73029 37.3946 7.70657 37.3946 11.3956L37.3946 19.8278L32.8608 19.8278L32.8608 12.0544C32.8608 10.4734 31.9274 9.5511 30.4605 9.5511C28.9937 9.5511 27.7936 10.7369 27.7936 12.5814L27.7936 19.8278ZM10.6022 20.3548C4.46823 20.3548 0.201118 15.8752 0.201118 10.6051C0.201118 5.33504 4.46823 0.855465 10.6022 0.855465C16.7362 0.855466 21.0033 5.33504 21.0033 10.6051C21.0033 15.8752 16.7362 20.3548 10.6022 20.3548ZM10.6022 5.33504C7.53522 5.33504 5.40166 7.44307 5.40166 10.6051C5.40166 13.7672 7.53522 15.8752 10.6022 15.8752C13.6692 15.8752 15.8028 13.7672 15.8028 10.6051C15.8028 7.44307 13.6692 5.33504 10.6022 5.33504Z" stroke="#232323"/>
</svg>
