<svg width="31" height="12" viewBox="0 0 31 12" xmlns="http://www.w3.org/2000/svg">
<path opacity="0.4" d="M2.868 4.632C2.868 2.916 3.816 2.196 4.824 2.196C5.832 2.196 6.78 2.916 6.78 4.632C6.78 6.348 5.832 7.056 4.824 7.056C3.816 7.056 2.868 6.348 2.868 4.632ZM9.384 4.632C9.384 1.764 7.488 0.0959995 4.824 0.0959995C2.16 0.0959995 0.264 1.764 0.264 4.632C0.264 7.5 2.16 9.156 4.824 9.156C7.488 9.156 9.384 7.5 9.384 4.632ZM12.7525 2.544H10.3525V9H12.7525V5.616C12.7525 4.668 13.1365 4.32 13.7245 4.32C14.4325 4.32 14.5045 4.896 14.5045 5.436V9H16.9045V4.956C16.9045 3.372 16.3645 2.4 14.7565 2.4C13.8805 2.4 13.1845 2.748 12.7525 3.384V2.544ZM20.5924 0.3H18.1924V9H20.5924V0.3ZM22.8647 11.1C24.4367 11.1 25.5407 10.8 26.2487 8.82L28.4447 2.544H26.1047L24.9047 6.672L23.6927 2.544H21.3047L23.6087 9.036L23.5727 9.12C23.4647 9.456 23.2247 9.492 22.7327 9.492H22.0007V11.1H22.8647ZM30.5433 9V6.48H27.9393V9H30.5433Z"/>
</svg>
